<svg xmlns="http://www.w3.org/2000/svg" xmlns:xlink="http://www.w3.org/1999/xlink" viewBox="0,0,256,256" width="100px" height="100px" fill-rule="nonzero"><g fill-opacity="0.07843" fill="#000000" fill-rule="nonzero" stroke="none" stroke-width="1" stroke-linecap="butt" stroke-linejoin="miter" stroke-miterlimit="10" stroke-dasharray="" stroke-dashoffset="0" font-family="none" font-weight="none" font-size="none" text-anchor="none" style="mix-blend-mode: normal"><g transform="scale(5.12,5.12)"><path d="M47.98438,41.43359c-0.06641,-0.08594 -0.55078,-0.35547 -0.74219,-0.35547c-0.19141,0 -0.81641,0.41016 -0.9375,0.49609c-0.11719,0.08594 -0.41797,0.22656 -0.51562,0.23828c-0.09766,0.00781 -0.95703,0.05078 -1.14844,0.05078c-0.19531,0 -0.48437,-0.05078 -0.61328,-0.04297c-0.12891,0.01172 -0.38672,0.01172 -0.44141,0.01172c-0.05469,0 -0.07422,-0.08594 0,-0.17187c0.07422,-0.08594 0.20313,-0.32031 0.33203,-0.49609c0.12891,-0.17187 0.34375,-0.30859 0.47266,-0.375c0.12891,-0.06641 0.33594,-0.15234 0.35547,-0.23828c0.02344,-0.08594 -0.32031,-0.08594 -0.52734,-0.01953c-0.20312,0.0625 -0.49219,0.35547 -0.57031,0.44141c-0.07422,0.08594 -0.13672,0.09766 -0.20312,0.08594c-0.0625,-0.01172 -0.19141,0.10547 -0.24609,0.14844c-0.05469,0.04297 -0.19531,0.14063 -0.32422,0.14063c-0.12891,0 -0.28906,-0.14062 -0.35547,-0.19531c-0.0625,-0.05078 -0.19141,-0.09375 -0.27734,-0.08594c-0.08594,0.01172 -0.25781,-0.04297 -0.37891,-0.13672c-0.11719,-0.09766 -0.14844,-0.19531 -0.11719,-0.25c0.03125,-0.05078 0.09766,-0.19141 0.11719,-0.25781c0.02344,-0.0625 -0.0625,-0.09766 -0.14062,-0.14062c-0.07422,-0.04297 -0.74219,-0.44922 -1.24609,-0.93359c-0.44141,-0.38672 -1.23828,-0.95703 -1.60547,-1.25781c-0.28125,-0.23437 -1.81641,-1.42187 -2.76172,-2.02344c-0.94922,-0.60156 -1.79687,-1.20703 -2.14062,-1.25781c-0.34766,-0.05469 -0.43359,-0.08594 -0.51953,-0.19531c-0.08594,-0.10547 -1.42969,-1.35547 -2.19141,-1.77344c-0.76562,-0.41797 -2.30469,-1.15234 -2.37891,-1.21484c0.14063,-0.25 0.17188,-0.52734 0.10547,-0.77734c-0.0625,-0.24609 -0.57812,-0.62109 -0.78516,-0.76172c-0.20312,-0.14062 -0.34375,-0.19531 -0.34375,-0.19531c0,0 -0.33203,-0.74219 -0.36328,-0.85156c0.09766,-0.39453 0.35547,-1.66797 0.30078,-3.35547c-0.05469,-1.6875 -0.18359,-1.9375 -0.36719,-2.28906c-0.18359,-0.35547 -0.44922,-0.71094 -0.64453,-1.49609c-0.19141,-0.78516 -0.24609,-1.49609 -0.14844,-1.80859c0.09375,-0.3125 0.35156,-0.85937 0.52344,-1.49219c0.17188,-0.63672 0.06641,-1.10937 0.08594,-1.32422c0.02344,-0.21484 0.18359,-0.42969 0.21875,-0.99219c0.03125,-0.55859 0.23438,-0.58984 0.38672,-1.39844c0.14844,-0.80469 0.22266,-1.28906 0.22266,-1.28906c0,0 0.26953,-0.04297 0.32422,-0.28125c0.05469,-0.23828 0.06641,-0.42969 0.12891,-0.80469c0.06641,-0.37891 0.08594,-0.80859 0.09766,-0.89453c0.01172,-0.08594 -0.07422,-0.22656 -0.07422,-0.22656c0,0 0.10547,-1.53906 0.13672,-1.91406c0.03516,-0.37891 0.15234,-0.65625 0.15234,-0.80859c0,-0.14844 0.01172,-0.26953 -0.16016,-0.53516c0.03516,-0.08594 0.07031,-0.14063 0.10156,-0.17969c0.03125,0.00391 0.05859,0.00391 0.08594,0.00391c1.36719,0 2.48047,-1.10547 2.48047,-2.47656c0,-1.36719 -1.11328,-2.47656 -2.48047,-2.47656c-1.36719,0 -2.47656,1.10938 -2.47656,2.47656c0,0.41406 0.10156,0.80078 0.28125,1.14453c0.03516,0.14063 0.08594,0.31641 0.12109,0.375c0.06641,0.10938 0.15234,0.20313 0.18359,0.32422c0.03516,0.11719 0.19531,0.39844 0.25,0.49609c0.05078,0.09375 0.13672,0.32031 0.13672,0.40625c0,0.08594 0.07813,0.25 0.12109,0.35547c0.04297,0.10938 0.03125,0.33203 -0.02344,0.59375c-0.05469,0.25781 -0.32031,1.54688 -0.40625,1.81641c-0.17187,0.10938 -0.22656,0.23828 -0.25,0.35547c-0.01953,0.11719 -0.14844,0.66797 -0.23437,0.87109c-0.08594,0.20313 -0.12109,0.57031 -0.12891,0.67969c-0.01172,0.10547 -0.02344,0.35156 -0.09766,0.40625c-0.08594,0.12891 -0.16016,0.34375 -0.23828,0.46484c-0.07422,0.11719 -0.12891,0.52734 -0.10937,0.69922c0.02344,0.17188 -0.00781,0.53906 -0.09375,0.64453c-0.12109,0.25781 -0.14062,0.55859 -0.20703,0.71094c-0.0625,0.14844 -0.27734,0.93359 -0.30859,1.09375c-0.03516,0.16406 -0.34766,0.41016 -0.48437,0.55078c-0.14062,0.14063 -0.39844,0.52734 -0.46484,0.63672c-0.01953,-0.22656 -0.0625,-0.22656 -0.10547,-0.30078c-0.04297,-0.07812 -0.17969,-0.11328 -0.21094,-0.14453c-0.03125,-0.03125 0.05078,-0.12891 0.0625,-0.23437c0.00781,-0.10937 -0.00391,-0.22656 -0.24219,-0.30078c-0.23437,-0.07422 -0.31641,-0.08984 -0.40234,-0.17578c-0.08594,-0.08594 -0.32812,-0.15625 -0.41016,-0.26953c-0.22656,-0.25781 -0.59375,-0.58984 -1.3125,-0.61328c0,0 -0.51953,-0.00781 -0.92578,0.26563c-0.37891,0.25 -1.05469,0.74219 -1.19531,1.75391c-0.14062,1.01172 0.77344,1.65625 0.84766,1.71875c0.07813,0.06641 0.29297,0.19531 0.14063,0.38672c-0.07422,0.06641 -0.09375,0.18359 -0.10547,0.25c-0.01172,0.0625 -0.14062,0.23438 -0.25781,0.34375c-0.11719,0.10547 -0.375,0.375 -0.375,0.375c0,0 -0.61328,0.03125 -0.99219,0.55859c-0.16016,0.19531 -0.23437,0.46484 -0.34375,0.625c-0.10937,0.16406 -0.48437,0.83984 -0.58984,1.04297c-0.10937,0.20703 -0.18359,0.48438 -0.49609,0.76563c-0.10937,0.18359 -0.35547,0.36719 -0.57031,1.19531c0,0 -0.85156,1.04297 -1.15234,1.53516c-0.30078,0.49609 -0.77344,1.35547 -0.80469,1.47656c-0.03125,0.11719 -0.26953,0.53516 -0.33594,0.69922c-0.0625,0.16016 -0.08594,0.30859 -0.16016,0.39453c-0.07422,0.08594 -0.34375,0.47656 -0.58203,0.67969c-0.23437,0.20703 -0.3125,0.32422 -0.375,0.42188c-0.0625,0.09375 -0.16016,0.23438 -0.55859,0.42969c-0.39844,0.19141 -0.61328,0.38672 -1.20703,0.44922c-0.58984,0.06641 -0.91406,0.01172 -0.95703,0.22656c-0.04297,0.21484 0.99219,0.25781 1.33594,0.20703c0.44922,-0.05469 0.71875,-0.29297 0.77344,-0.23828c0.05469,0.05469 -0.12891,0.35547 -0.51562,0.47266c-0.38672,0.11719 -0.32422,0.23828 -0.32422,0.30078c0,0.06641 0.22656,0.14063 0.58203,0.04297c0.35547,-0.09766 0.98828,-0.40234 1.04297,-0.33594c0.05469,0.06641 -0.14062,0.32813 -0.20312,0.43359c-0.06641,0.10938 0.03125,0.22656 0.12891,0.23828c0.09375,0.00781 0.34375,-0.02344 0.53516,-0.38672c0.19531,-0.36719 0.46484,-0.53906 0.53906,-0.53906c0.07422,0 0.41016,0.36719 0.63672,0.45313c0.22266,0.08594 0.71875,0.08594 0.77344,-0.16406c0.05469,-0.24609 -0.30078,-0.25781 -0.38672,-0.25781c-0.08594,0 -0.28906,-0.19141 -0.30078,-0.30078c-0.01172,-0.10547 0.05469,-0.44922 0.01953,-0.60156c-0.03125,-0.15234 0.07813,-0.6875 0.21875,-1.03125c0.13672,-0.34375 0.60938,-1.16406 0.94531,-1.36719c0.33203,-0.20312 1.47266,-1.03125 1.82813,-1.77344c0.35547,-0.74219 0.49609,-1.12109 0.61328,-1.17578c0.11719,-0.05469 0.3125,-0.0625 0.47266,-0.28906c0.16016,-0.22656 0.21484,-0.39844 0.34375,-0.39844c0.12891,0 0.11719,-0.05469 0.48438,0.48438c0.36719,0.53906 0.51563,0.63672 0.55078,0.71094c0.03125,0.07422 -0.07031,0.22266 0.04297,0.44141c0.14844,0.28906 0.36328,0.35547 0.36328,0.50391c0,0.15234 0.04297,0.42969 0.12109,0.625c0.07422,0.19531 0.21875,0.50391 0.13672,0.63672c-0.10547,0.17188 -0.36328,0.48047 -0.41797,0.58984c-0.32422,0.04297 -0.78516,0.18359 -0.85937,0.86328c-0.07422,0.63672 0.01953,1.24609 -0.01172,1.38672c-0.03125,0.14063 -0.45312,0.55859 -0.61328,0.625c-0.16016,0.0625 -0.53906,0.11719 -0.66797,0.30859c-0.12891,0.19531 -0.16016,0.35547 -0.41016,0.49609c-0.23828,0.13672 -1.80469,1.48047 -2.86328,3.04297c-0.03516,0.05469 -0.13281,0.09375 -0.25,0.13281c-0.46094,0.07813 -0.64062,0.22266 -0.72656,0.26563c-0.07422,0.03906 -0.27344,0.23047 -0.46875,0.45313c-0.07422,0.11328 -0.18359,0.14063 -0.21875,0.17969c-0.41016,0.15234 -1.88281,0.90625 -2.76562,1.51953c-0.88281,0.61328 -2.51562,2.02344 -3.09766,2.74219c-0.37891,0.45313 -0.42187,0.44141 -0.51562,0.48438c-0.09766,0.04297 -0.05469,0.25781 -0.02344,0.36719c0,0 -0.17187,0.23438 -0.28125,0.25781c-0.10547,0.01953 -0.20312,-0.19531 -0.34375,-0.20703c-0.14062,-0.00781 -0.28906,0.28125 -0.33203,0.35547c-0.04297,0.07422 -0.10937,0.21484 -0.20312,0.23828c-0.09766,0.01953 -0.26953,-0.10937 -0.28906,-0.37891c-0.02344,-0.26562 -0.19531,-0.52344 -0.25,-0.54687c-0.12891,0 -0.20312,0.20313 -0.20312,0.28125c0,0.07422 0.07422,0.27734 0.14063,0.36328c0.0625,0.08594 0.01953,0.20313 0.01953,0.29297c0,0.08594 0.10938,0.17188 0.11719,0.20313c0.01172,0.03125 0.05469,0.26953 -0.03125,0.24609c-0.08594,-0.01953 -0.26953,-0.01172 -0.39844,0.07422c-0.12891,0.08594 -0.19531,0.19531 -0.19531,0.26953c0,0.07422 0.05469,0.23828 -0.20312,0.29297c-0.3125,0.10547 -0.55859,0.14844 -0.71875,0.20313c-0.16406,0.05469 -0.53906,0.26953 -0.6875,0.28906c-0.15234,0.02344 -0.25,0.01172 -0.37891,0.02344c-0.12891,0.01172 -0.24609,0.07422 -0.375,0.07422c-0.12891,0 -0.50391,0.20313 -0.71094,0.3125c-0.20312,0.10938 -0.44141,0.46094 -0.28906,0.78516c0.14844,0.32422 0.58203,0.74219 0.72266,0.89453c0.13672,0.14844 0.34375,0.27734 0.79297,0.33203c0.45312,0.05469 0.71094,-0.10547 0.9375,-0.24609c0.22656,-0.14062 0.72266,-0.21484 0.91406,-0.17187c0.19531,0.04297 0.59375,0.18359 0.91406,-0.05469c0.41016,-0.27734 0.28125,-0.46094 0.39844,-0.53906c0.10938,0 0.15234,-0.05078 0.25,-0.21484c0.09375,-0.16016 0.21484,-0.30078 0.38672,-0.33203c0.17188,-0.03125 0.33203,-0.23828 0.44141,-0.46094c0.10547,-0.22656 0.32031,-0.45312 0.42969,-0.49609c0.10547,-0.04297 0.17188,-0.14062 0.20313,-0.22656c0.03125,-0.08594 0.23828,-0.16016 0.35547,-0.25781c0.11719,-0.09766 0.21484,-0.15234 0.26953,-0.10937c0.05078,0.04297 0.14844,-0.04297 0.26953,-0.12891c0.26563,-0.12891 0.39453,-0.35547 0.48047,-0.30078c0.08594,0.05469 0.38672,0.12891 0.50781,0.02344c0.11719,-0.10937 1.6875,-1.37891 2.24609,-1.79687c0.37891,-0.25781 0.65625,-0.35547 1.40234,-0.78516c0.59375,-0.34766 1.51563,-0.95703 1.71875,-1.09766c0.20703,-0.14062 1.14063,-0.86328 1.25781,-0.94531c0.26172,-0.18359 0.52734,-0.21094 1.46484,-0.69141c0.69922,-0.35547 2.16406,-1.09766 3.42969,-1.90234c0.64844,-0.38672 1.74609,-0.94922 1.88281,-0.95703c0.14063,-0.01172 0.52734,0.27734 0.9375,0.42969c0.5,0.18359 0.82813,0.22656 1.53906,0.46094c0.70703,0.23828 2.625,1.04297 3.08594,1.22656c0.46484,0.18359 1.09766,0.42188 1.90234,0.46484c0.45313,0.08594 0.66797,0.14844 0.82031,0.18359c0.14844,0.03125 0.26563,0.01953 0.41797,0.08594c0.14844,0.0625 0.58984,0.35547 0.85938,0.48438c0.26953,0.12891 1.22656,0.76172 1.47656,0.94531c0.24609,0.18359 1.39844,1.06641 1.65625,1.23828c0.25781,0.17188 0.51563,0.375 0.71094,0.39844c0.19141,0.01953 0.42969,0.14844 0.6875,0.35156c0.25781,0.20703 0.85938,0.625 1.03125,0.75391c0.17188,0.12891 0.41016,0.35547 0.74219,0.37891c0.33594,0.01953 0.49609,0.09766 0.71094,0.28906c0.21484,0.19531 0.53906,0.625 0.6875,0.71094c0.15234,0.08594 0.32422,0.22656 0.38672,0.35547c0.06641,0.12891 0.46484,0.62109 0.61328,0.73047c0.15234,0.10938 0.21484,0.20313 0.26953,0.37891c0.05469,0.17188 0.27734,0.62109 0.39844,0.80469c0.11719,0.18359 0.17188,0.36719 0.51563,0.12891c0.44141,-0.28906 0.79688,-0.71094 1.35547,-1.07422c0.5625,-0.36719 0.88281,-0.57031 1.3125,-0.86328c0.43359,-0.28906 1.47656,-1.32031 1.77734,-1.64453c0.29688,-0.32812 0.42578,-0.46875 0.36328,-0.55469z"></path></g></g></svg>